<?xml version="1.0" encoding="UTF-8"?>
<svg width="198px" height="248px" viewBox="0 0 198 248" version="1.1" xmlns="http://www.w3.org/2000/svg" xmlns:xlink="http://www.w3.org/1999/xlink">
    <!-- Generator: Sketch 43.2 (39069) - http://www.bohemiancoding.com/sketch -->
    <title>Group 3</title>
    <desc>Created with Sketch.</desc>
    <defs>
        <path d="M87.862627,10.1613115 C88.9566172,8.11418957 91.325541,5.3052666 93.1618649,3.88112574 L97.685889,0.372568527 C99.5185871,-1.04876036 102.455978,-1.0155936 104.256751,0.454826771 L108.352082,3.7988675 C110.148371,5.26562636 112.501553,8.115475 113.597798,10.145179 L115.966054,14.5300198 C117.066895,16.568232 116.085186,18.2205294 113.757962,18.2205294 L87.7570881,18.2205294 C85.4367523,18.2205294 84.4432897,16.5597238 85.5365929,14.5138873 L87.862627,10.1613115 Z" id="path-1"></path>
        <rect id="path-2" x="55.0898204" y="74.3398058" width="87.4251497" height="113.308252"></rect>
        <rect id="path-3" x="65.8682635" y="104.315534" width="28.1437126" height="17.9854369" rx="4.8"></rect>
        <rect id="path-4" x="102.994012" y="104.315534" width="28.1437126" height="17.9854369" rx="4.8"></rect>
        <rect id="path-5" x="65.8682635" y="126.497573" width="28.1437126" height="17.9854369" rx="4.8"></rect>
        <rect id="path-6" x="102.994012" y="126.497573" width="28.1437126" height="17.9854369" rx="4.8"></rect>
        <path d="M79.4807311,11.2619123 C80.990079,8.68426013 84.6346471,6.59466019 87.6169025,6.59466019 L100.304191,6.59466019 L113.640818,6.59466019 C116.618713,6.59466019 120.086591,8.77458639 121.385148,11.4607833 L131.171219,31.7042652 C132.470399,34.3917508 131.113125,36.5703883 128.120085,36.5703883 L70.0648241,36.5703883 C67.0805494,36.5703883 65.881627,34.4863524 67.3942329,31.9031363 L79.4807311,11.2619123 Z" id="path-7"></path>
        <path d="M49.7812299,162.792654 C47.752442,150.362797 56.3207255,140.286408 68.9002065,140.286408 L131.099794,140.286408 C143.687701,140.286408 152.653035,150.4138 151.123923,162.910703 L148.338275,185.676847 C146.809389,198.1719 135.369151,208.301142 122.771782,208.301142 L80.007278,208.301142 C67.4161792,208.301142 55.5650698,198.228737 53.5356314,185.794896 L49.7812299,162.792654 Z" id="path-8"></path>
        <rect id="path-9" x="0" y="0" width="31.7365269" height="41.3665049" rx="6.6"></rect>
        <rect id="path-10" x="5.38922156" y="4.19660194" width="20.9580838" height="23.9805825"></rect>
        <path d="M103.157423,69.078256 C109.337081,68.7712745 115.959836,68.0687282 119.988871,66.5414392 C129.207458,63.0469438 123.255576,36.7073222 112.793734,32.6891257 C102.331891,28.6709291 35.0328099,26.3966974 23.5659474,32.6891257 C12.0990849,38.981554 9.84514517,64.2864902 15.6826736,66.5414392 C18.4697399,67.6180408 25.8384202,68.1839728 32.7785206,68.4814532 C32.660901,69.1570753 32.600568,69.8421942 32.600568,70.5352391 C32.600568,82.0092477 48.6716127,91.2414829 67.9211851,91.2414829 C87.1707574,91.2414829 103.241802,82.0092477 103.241802,70.5352391 C103.241802,70.0454343 103.213366,69.5595884 103.157423,69.078256 Z" id="path-11"></path>
        <rect id="path-12" x="0" y="0" width="16.7664671" height="71.9859741" rx="8.38323353"></rect>
        <rect id="path-13" x="116.167665" y="0" width="16.7664671" height="71.9859741" rx="8.38323353"></rect>
    </defs>
    <g id="Page-1" stroke="none" stroke-width="1" fill="none" fill-rule="evenodd">
        <g id="Group-3" transform="translate(-1.000000, 1.000000)">
            <g id="front">
                <use fill="#000000" fill-rule="evenodd" xlink:href="#path-1"></use>
                <path stroke="#979797" stroke-width="0.6" d="M88.1272152,10.3027085 C89.2020757,8.29138292 91.5439979,5.51549125 93.3457163,4.11818837 L97.8697403,0.609631158 C99.5936355,-0.727316814 102.376063,-0.693539657 104.067007,0.687199737 L108.162338,4.03124047 C109.925667,5.47108652 112.254636,8.28959558 113.333837,10.2877442 L115.702094,14.6725851 C116.696074,16.5129456 115.855708,17.9205294 113.757962,17.9205294 L87.7570881,17.9205294 C85.6639197,17.9205294 84.8143991,16.5017935 85.8011811,14.6552842 L88.1272152,10.3027085 L88.1272152,10.3027085 Z"></path>
            </g>
            <g id="middle">
                <use fill="#1E1E1E" fill-rule="evenodd" xlink:href="#path-2"></use>
                <rect stroke="#740A17" stroke-width="6" x="58.0898204" y="77.3398058" width="81.4251497" height="107.308252"></rect>
            </g>
            <g id="Rectangle-3">
                <use fill="#151515" fill-rule="evenodd" xlink:href="#path-3"></use>
                <rect stroke="#141414" stroke-width="0.6" x="66.1682635" y="104.615534" width="27.5437126" height="17.3854369" rx="4.8"></rect>
            </g>
            <g id="Rectangle-3">
                <use fill="#151515" fill-rule="evenodd" xlink:href="#path-4"></use>
                <rect stroke="#141414" stroke-width="0.6" x="103.294012" y="104.615534" width="27.5437126" height="17.3854369" rx="4.8"></rect>
            </g>
            <g id="Rectangle-3">
                <use fill="#151515" fill-rule="evenodd" xlink:href="#path-5"></use>
                <rect stroke="#141414" stroke-width="0.6" x="66.1682635" y="126.797573" width="27.5437126" height="17.3854369" rx="4.8"></rect>
            </g>
            <g id="Rectangle-3">
                <use fill="#151515" fill-rule="evenodd" xlink:href="#path-6"></use>
                <rect stroke="#141414" stroke-width="0.6" x="103.294012" y="126.797573" width="27.5437126" height="17.3854369" rx="4.8"></rect>
            </g>
            <path d="M98.8023952,100.718447 C118.975671,100.718447 148.766514,90.735821 148.766514,70.5385532 C148.766514,50.3412854 118.975671,27.5776699 98.8023952,27.5776699 C78.6291199,27.5776699 48.0293995,50.3412854 48.0293995,70.5385532 C48.0293995,90.735821 78.6291199,100.718447 98.8023952,100.718447 Z" id="Oval-3" fill="#151515"></path>
            <polygon id="right-indicator" fill="#C67D05" points="138.323353 24.5800971 149.013912 27.9060287 153.293413 36.5703883 138.323353 36.5703883"></polygon>
            <polygon id="left-indicator" fill="#C67D05" transform="translate(52.994012, 30.575243) scale(-1, 1) translate(-52.994012, -30.575243) " points="45.508982 24.5800971 56.1995409 27.9060287 60.4790419 36.5703883 45.508982 36.5703883"></polygon>
            <g id="almost-front">
                <use fill="#740A17" fill-rule="evenodd" xlink:href="#path-7"></use>
                <path stroke="#740A17" stroke-width="1.2" d="M79.9984979,11.5650914 C81.3998899,9.17180552 84.8470919,7.19466019 87.6169025,7.19466019 L100.304191,7.19466019 L113.640818,7.19466019 C116.387879,7.19466019 119.646271,9.24232057 120.844956,11.7219218 L130.631028,31.9654037 C131.739076,34.2575141 130.667209,35.9703883 128.120085,35.9703883 L70.0648241,35.9703883 C67.541869,35.9703883 66.6347178,34.3876471 67.9119997,32.2063153 L79.9984979,11.5650914 L79.9984979,11.5650914 Z"></path>
            </g>
            <g id="lft-mirror" transform="translate(178.000000, 54.463592) scale(-1, 1) translate(-178.000000, -54.463592) translate(156.000000, 44.963592)">
                <path d="M32.6347305,9.29247573 L42.8143713,0.299757282" id="Line" stroke="#1E1E1E" stroke-width="3" stroke-linecap="square"></path>
                <path d="M29.9437739,8.24064067 C34.4937942,8.56648565 36.3427418,6.7533618 37.3177481,8.87991458 C38.2927544,11.0064674 33.3931995,17.7357526 24.2580379,13.8793683 C19.9212692,12.0486129 16.0775808,11.8890216 12.7787493,12.2628966 C7.14496456,12.9014047 6.36652784,13.8911537 4.59737638,14.3892109 C1.22927278,15.3374101 1.42066245,14.0135582 1.13932806,7.56724789 C0.857993665,1.12093759 25.3937536,7.91479568 29.9437739,8.24064067 Z" id="Rectangle-5" fill="#1E1E1E" transform="translate(19.288498, 9.925042) rotate(-12.000000) translate(-19.288498, -9.925042) "></path>
                <path d="M17.0596216,16.0276579 C23.177746,16.0276579 28.4279743,15.4381808 30.9450958,14.2310648 C33.4622173,13.0239489 28.3957255,11.889249 22.277601,11.889249 C19.4650914,11.889249 16.4813622,11.6574633 12.4526014,11.7494088 C8.42384057,11.8413544 8.79073255,11.5076159 5.98177724,13.929357 C2.3621736,17.0499986 10.9414971,16.0276579 17.0596216,16.0276579 Z" id="Oval-2" stroke="#1E1E1E" stroke-width="2" fill="#DDDBDE" transform="translate(18.362935, 13.957847) rotate(-7.000000) translate(-18.362935, -13.957847) "></path>
            </g>
            <g id="lft-mirror" transform="translate(0.000000, 44.963592)">
                <path d="M32.6347305,9.29247573 L42.8143713,0.299757282" id="Line" stroke="#1E1E1E" stroke-width="3" stroke-linecap="square"></path>
                <path d="M29.9437739,8.24064067 C34.4937942,8.56648565 36.3427418,6.7533618 37.3177481,8.87991458 C38.2927544,11.0064674 33.3931995,17.7357526 24.2580379,13.8793683 C19.9212692,12.0486129 16.0775808,11.8890216 12.7787493,12.2628966 C7.14496456,12.9014047 6.36652784,13.8911537 4.59737638,14.3892109 C1.22927278,15.3374101 1.42066245,14.0135582 1.13932806,7.56724789 C0.857993665,1.12093759 25.3937536,7.91479568 29.9437739,8.24064067 Z" id="Rectangle-5" fill="#1E1E1E" transform="translate(19.288498, 9.925042) rotate(-12.000000) translate(-19.288498, -9.925042) "></path>
                <path d="M17.0596216,16.0276579 C23.177746,16.0276579 28.4279743,15.4381808 30.9450958,14.2310648 C33.4622173,13.0239489 28.3957255,11.889249 22.277601,11.889249 C19.4650914,11.889249 16.4813622,11.6574633 12.4526014,11.7494088 C8.42384057,11.8413544 8.79073255,11.5076159 5.98177724,13.929357 C2.3621736,17.0499986 10.9414971,16.0276579 17.0596216,16.0276579 Z" id="Oval-2" stroke="#1E1E1E" stroke-width="2" fill="#DDDBDE" transform="translate(18.362935, 13.957847) rotate(-7.000000) translate(-18.362935, -13.957847) "></path>
            </g>
            <path d="M41.4994247,39.3013054 C42.8076651,35.3890357 62.7152677,25.6537117 67.3295498,25.6537117 C71.9438319,25.6537117 124.579204,25.6537117 130.870678,25.6537117 C137.162151,25.6537117 153.475913,35.6870298 155.983262,39.3013054 C158.490611,42.915581 155.54573,86.0712637 147.231268,89.9271845 C138.916806,93.7831052 159.816443,54.6966084 98.8575463,54.6966084 C37.8986491,54.6966084 58.2291081,94.717634 48.5363997,89.9271845 C38.8436913,85.1367349 40.1911842,43.2135751 41.4994247,39.3013054 Z" id="control-unit" fill="#1E1E1E"></path>
            <path d="M85.7201265,72.5413292 C85.7201265,72.5413292 81.8166632,72.508937 77.6850995,73.8676548 C73.5535358,75.2263725 71.067837,76.5984429 69.8575879,78.1357297 C65.633569,83.5011783 69.2221926,87.456046 66.8134353,91.2083017 C64.4046781,94.9605575 58.0838323,94.4360571 58.0838323,94.4360571" id="Line" stroke="#0A0808" stroke-width="7.2" stroke-linecap="square"></path>
            <path d="M145.001564,72.5413292 C145.001564,72.5413292 141.0981,72.508937 136.966537,73.8676548 C132.834973,75.2263725 130.349274,76.5984429 129.139025,78.1357297 C124.915006,83.5011783 128.50363,87.456046 126.094872,91.2083017 C123.686115,94.9605575 117.365269,94.4360571 117.365269,94.4360571" id="Line" stroke="#0A0808" stroke-width="7.2" stroke-linecap="square" transform="translate(131.183417, 83.501178) scale(-1, 1) translate(-131.183417, -83.501178) "></path>
            <g id="seat-front">
                <use fill="#363535" fill-rule="evenodd" xlink:href="#path-8"></use>
                <path stroke="#151515" stroke-width="1.8" d="M50.6694761,162.647675 C48.7305377,150.768304 56.8728025,141.186408 68.9002065,141.186408 L131.099794,141.186408 C143.147942,141.186408 151.693984,150.841547 150.230586,162.801395 L147.444937,185.567539 C145.971025,197.613319 134.912208,207.401142 122.771782,207.401142 L80.007278,207.401142 C67.8559046,207.401142 56.3820395,197.647067 54.4238776,185.649917 L50.6694761,162.647675 Z"></path>
            </g>
            <g id="Group" transform="translate(85.628743, 49.160194)">
                <g id="Rectangle">
                    <use fill="#141414" fill-rule="evenodd" xlink:href="#path-9"></use>
                    <rect stroke="#740A17" stroke-width="0.6" x="0.3" y="0.3" width="31.1365269" height="40.7665049" rx="6.6"></rect>
                </g>
                <g id="Rectangle-2">
                    <use fill="#868A83" fill-rule="evenodd" xlink:href="#path-10"></use>
                    <rect stroke="#151515" stroke-width="0.6" x="5.68922156" y="4.49660194" width="20.3580838" height="23.3805825"></rect>
                </g>
                <text id="Alan’s-Awesome-Scoot" font-family="Raleway-Medium, Raleway" font-size="1.8" font-weight="400" fill="#FFFFFF">
                    <tspan x="13.3680635" y="10.9927184">Alan’s</tspan>
                    <tspan x="11.6886635" y="12.9927184">Awesome</tspan>
                    <tspan x="12.5859635" y="14.9927184">Scooter</tspan>
                    <tspan x="15.8682635" y="16.9927184"></tspan>
                    <tspan x="13.0602635" y="18.9927184">IIIIIIIIIIII</tspan>
                </text>
                <ellipse id="Oval" stroke="#151515" stroke-width="0.6" fill="#D0011B" cx="9.28143713" cy="34.4720874" rx="3.89221557" ry="3.89684466"></ellipse>
                <ellipse id="Oval" stroke="#151515" stroke-width="0.6" fill="#7ED321" cx="22.4550898" cy="34.4720874" rx="3.89221557" ry="3.89684466"></ellipse>
            </g>
            <g id="seat-lines" transform="translate(61.676647, 142.084951)" stroke="#151515" stroke-width="1.8" stroke-linecap="square">
                <path d="M0.299401198,0.299757282 L13.4730539,21.8822816" id="Line"></path>
                <path d="M64.3712575,0.299757282 L77.5449102,21.8822816" id="Line" transform="translate(70.958084, 11.091019) scale(-1, 1) translate(-70.958084, -11.091019) "></path>
                <path d="M13.4730539,21.8822816 L64.3747797,21.8822816" id="Line"></path>
                <path d="M13.4730539,21.8822816 L13.4730539,53.0570388" id="Line"></path>
                <path d="M64.3712575,21.8822816 L64.3712575,53.0570388" id="Line"></path>
            </g>
            <g id="Group-2" transform="translate(35.329341, 155.274272)">
                <g id="seat-back">
                    <use fill="#363535" fill-rule="evenodd" xlink:href="#path-11"></use>
                    <path stroke="#0A0808" stroke-width="1.8" d="M103.11277,68.1793644 L102.152436,68.2270701 L102.263441,69.1821585 C102.315604,69.630977 102.341802,70.0821342 102.341802,70.5352391 C102.341802,81.3171389 86.8508337,90.3414829 67.9211851,90.3414829 C48.9915365,90.3414829 33.500568,81.3171389 33.500568,70.5352391 C33.500568,69.898298 33.5556813,69.2648142 33.6651846,68.6358132 L33.8409546,67.626167 L32.8170628,67.5822789 C24.4122241,67.2220139 18.3291289,66.5989114 16.0069754,65.7018986 C13.7524877,64.8310241 12.7798476,58.5314804 14.022234,51.2813459 C15.4231255,43.1062306 19.065062,36.1855836 23.9989162,33.4781365 C29.0264421,30.7192871 46.5126607,29.4024507 68.543648,29.7225464 C88.6063629,30.0140443 107.526852,31.6303161 112.471043,33.529287 C122.369873,37.3312412 127.885851,62.5854333 119.669859,65.6998745 C116.19443,67.0173077 110.4027,67.8172289 103.11277,68.1793644 Z"></path>
                </g>
                <g id="Rectangle-4">
                    <use fill="#1E1E1E" fill-rule="evenodd" xlink:href="#path-12"></use>
                    <rect stroke="#0A0808" stroke-width="0.6" x="0.3" y="0.3" width="16.1664671" height="71.3859741" rx="8.08323353"></rect>
                </g>
                <g id="Rectangle-4">
                    <use fill="#1E1E1E" fill-rule="evenodd" xlink:href="#path-13"></use>
                    <rect stroke="#0A0808" stroke-width="0.6" x="116.467665" y="0.3" width="16.1664671" height="71.3859741" rx="8.08323353"></rect>
                </g>
            </g>
            <path d="M83.5329341,208.930825 L83.5329341,219.722087" id="Line" stroke="#0A0808" stroke-width="1.8" stroke-linecap="square"></path>
            <path d="M118.263473,208.930825 L118.263473,219.722087" id="Line" stroke="#0A0808" stroke-width="1.8" stroke-linecap="square"></path>
            <path d="M82.9341317,208.930825 L118.268547,208.930825" id="Line" stroke="#0A0808" stroke-width="1.8" stroke-linecap="square"></path>
            <path d="M69.2532404,223.561594 C69.2532404,223.561594 69.2410202,223.782132 69.4566228,223.281718 C70.0568352,221.888622 75.169988,219.349195 103.942293,219.349195 C131.820427,219.349195 136.416634,221.605773 137.677252,223.053903 C138.135704,223.580548 138.144743,223.908543 138.144743,223.908543" id="Line" stroke="#0A0808" stroke-width="1.8" stroke-linecap="square"></path>
            <path d="M75.1497006,184.950243 L82.9341317,208.930825" id="Line" stroke="#0A0808" stroke-width="1.8" stroke-linecap="square"></path>
            <path d="M118.263473,184.950243 L126.047904,208.930825" id="Line" stroke="#0A0808" stroke-width="1.8" stroke-linecap="square" transform="translate(122.155689, 196.940534) scale(-1, 1) translate(-122.155689, -196.940534) "></path>
        </g>
    </g>
</svg>